<mxfile host="app.diagrams.net" modified="2024-04-08T09:23:48.995Z" agent="Mozilla/5.0 (Windows NT 10.0; Win64; x64) AppleWebKit/537.36 (KHTML, like Gecko) Chrome/123.0.0.0 Safari/537.36" etag="hO-rVb05aGN_HaPbVd0l" version="24.2.0" type="device">
  <diagram id="C5RBs43oDa-KdzZeNtuy" name="Page-1">
    <mxGraphModel dx="2044" dy="2273" grid="1" gridSize="10" guides="1" tooltips="1" connect="1" arrows="1" fold="1" page="1" pageScale="1" pageWidth="827" pageHeight="1169" math="0" shadow="0">
      <root>
        <mxCell id="WIyWlLk6GJQsqaUBKTNV-0" />
        <mxCell id="WIyWlLk6GJQsqaUBKTNV-1" parent="WIyWlLk6GJQsqaUBKTNV-0" />
        <mxCell id="8eBEiztrSXnsMm5_wwWA-53" value="" style="rounded=0;whiteSpace=wrap;html=1;" vertex="1" parent="WIyWlLk6GJQsqaUBKTNV-1">
          <mxGeometry x="590" y="280" width="500" height="350" as="geometry" />
        </mxCell>
        <mxCell id="8eBEiztrSXnsMm5_wwWA-41" value="" style="rounded=0;whiteSpace=wrap;html=1;" vertex="1" parent="WIyWlLk6GJQsqaUBKTNV-1">
          <mxGeometry x="650" y="-150" width="380" height="330" as="geometry" />
        </mxCell>
        <mxCell id="8eBEiztrSXnsMm5_wwWA-4" value="Duck" style="swimlane;fontStyle=1;align=center;verticalAlign=top;childLayout=stackLayout;horizontal=1;startSize=26;horizontalStack=0;resizeParent=1;resizeParentMax=0;resizeLast=0;collapsible=1;marginBottom=0;whiteSpace=wrap;html=1;" vertex="1" parent="WIyWlLk6GJQsqaUBKTNV-1">
          <mxGeometry x="200" y="68" width="226" height="150" as="geometry" />
        </mxCell>
        <mxCell id="8eBEiztrSXnsMm5_wwWA-5" value="+ IFlyBehaviour: flyBehaviour&lt;div&gt;+ IQuackBehaviour: quackBehaviour&lt;/div&gt;" style="text;strokeColor=none;fillColor=none;align=left;verticalAlign=top;spacingLeft=4;spacingRight=4;overflow=hidden;rotatable=0;points=[[0,0.5],[1,0.5]];portConstraint=eastwest;whiteSpace=wrap;html=1;" vertex="1" parent="8eBEiztrSXnsMm5_wwWA-4">
          <mxGeometry y="26" width="226" height="44" as="geometry" />
        </mxCell>
        <mxCell id="8eBEiztrSXnsMm5_wwWA-6" value="" style="line;strokeWidth=1;fillColor=none;align=left;verticalAlign=middle;spacingTop=-1;spacingLeft=3;spacingRight=3;rotatable=0;labelPosition=right;points=[];portConstraint=eastwest;strokeColor=inherit;" vertex="1" parent="8eBEiztrSXnsMm5_wwWA-4">
          <mxGeometry y="70" width="226" height="8" as="geometry" />
        </mxCell>
        <mxCell id="8eBEiztrSXnsMm5_wwWA-7" value="+ PerformQuack(): void&lt;div&gt;+ PerformFly(): void&lt;/div&gt;&lt;div&gt;+ Swim(): void&lt;/div&gt;&lt;div&gt;+ Display(): void&lt;/div&gt;" style="text;strokeColor=none;fillColor=none;align=left;verticalAlign=top;spacingLeft=4;spacingRight=4;overflow=hidden;rotatable=0;points=[[0,0.5],[1,0.5]];portConstraint=eastwest;whiteSpace=wrap;html=1;" vertex="1" parent="8eBEiztrSXnsMm5_wwWA-4">
          <mxGeometry y="78" width="226" height="72" as="geometry" />
        </mxCell>
        <mxCell id="8eBEiztrSXnsMm5_wwWA-12" value="MallardDuck" style="swimlane;fontStyle=0;childLayout=stackLayout;horizontal=1;startSize=26;fillColor=none;horizontalStack=0;resizeParent=1;resizeParentMax=0;resizeLast=0;collapsible=1;marginBottom=0;whiteSpace=wrap;html=1;" vertex="1" parent="WIyWlLk6GJQsqaUBKTNV-1">
          <mxGeometry x="150" y="308" width="140" height="52" as="geometry" />
        </mxCell>
        <mxCell id="8eBEiztrSXnsMm5_wwWA-13" value="+ Display(): void" style="text;strokeColor=none;fillColor=none;align=left;verticalAlign=top;spacingLeft=4;spacingRight=4;overflow=hidden;rotatable=0;points=[[0,0.5],[1,0.5]];portConstraint=eastwest;whiteSpace=wrap;html=1;" vertex="1" parent="8eBEiztrSXnsMm5_wwWA-12">
          <mxGeometry y="26" width="140" height="26" as="geometry" />
        </mxCell>
        <mxCell id="8eBEiztrSXnsMm5_wwWA-16" value="RedheadDuck" style="swimlane;fontStyle=0;childLayout=stackLayout;horizontal=1;startSize=26;fillColor=none;horizontalStack=0;resizeParent=1;resizeParentMax=0;resizeLast=0;collapsible=1;marginBottom=0;whiteSpace=wrap;html=1;" vertex="1" parent="WIyWlLk6GJQsqaUBKTNV-1">
          <mxGeometry x="320" y="308" width="140" height="52" as="geometry" />
        </mxCell>
        <mxCell id="8eBEiztrSXnsMm5_wwWA-17" value="+ Display(): void" style="text;strokeColor=none;fillColor=none;align=left;verticalAlign=top;spacingLeft=4;spacingRight=4;overflow=hidden;rotatable=0;points=[[0,0.5],[1,0.5]];portConstraint=eastwest;whiteSpace=wrap;html=1;" vertex="1" parent="8eBEiztrSXnsMm5_wwWA-16">
          <mxGeometry y="26" width="140" height="26" as="geometry" />
        </mxCell>
        <mxCell id="8eBEiztrSXnsMm5_wwWA-20" value="extends" style="endArrow=block;endSize=16;endFill=0;html=1;rounded=0;exitX=0.5;exitY=0;exitDx=0;exitDy=0;entryX=0.398;entryY=1.014;entryDx=0;entryDy=0;entryPerimeter=0;" edge="1" parent="WIyWlLk6GJQsqaUBKTNV-1" source="8eBEiztrSXnsMm5_wwWA-12" target="8eBEiztrSXnsMm5_wwWA-7">
          <mxGeometry width="160" relative="1" as="geometry">
            <mxPoint x="260" y="408" as="sourcePoint" />
            <mxPoint x="420" y="408" as="targetPoint" />
          </mxGeometry>
        </mxCell>
        <mxCell id="8eBEiztrSXnsMm5_wwWA-21" value="extends" style="endArrow=block;endSize=16;endFill=0;html=1;rounded=0;exitX=0.5;exitY=0;exitDx=0;exitDy=0;entryX=0.518;entryY=1.014;entryDx=0;entryDy=0;entryPerimeter=0;" edge="1" parent="WIyWlLk6GJQsqaUBKTNV-1" source="8eBEiztrSXnsMm5_wwWA-16" target="8eBEiztrSXnsMm5_wwWA-7">
          <mxGeometry width="160" relative="1" as="geometry">
            <mxPoint x="210" y="318" as="sourcePoint" />
            <mxPoint x="295" y="252" as="targetPoint" />
          </mxGeometry>
        </mxCell>
        <mxCell id="8eBEiztrSXnsMm5_wwWA-23" value="&amp;lt;&amp;lt;interface&amp;gt;&amp;gt;&lt;div&gt;IFlyBehaviour&lt;/div&gt;" style="swimlane;fontStyle=0;childLayout=stackLayout;horizontal=1;startSize=40;fillColor=none;horizontalStack=0;resizeParent=1;resizeParentMax=0;resizeLast=0;collapsible=1;marginBottom=0;whiteSpace=wrap;html=1;" vertex="1" parent="WIyWlLk6GJQsqaUBKTNV-1">
          <mxGeometry x="770" y="-90" width="140" height="66" as="geometry" />
        </mxCell>
        <mxCell id="8eBEiztrSXnsMm5_wwWA-24" value="+ Fly(): void" style="text;strokeColor=none;fillColor=none;align=left;verticalAlign=top;spacingLeft=4;spacingRight=4;overflow=hidden;rotatable=0;points=[[0,0.5],[1,0.5]];portConstraint=eastwest;whiteSpace=wrap;html=1;" vertex="1" parent="8eBEiztrSXnsMm5_wwWA-23">
          <mxGeometry y="40" width="140" height="26" as="geometry" />
        </mxCell>
        <mxCell id="8eBEiztrSXnsMm5_wwWA-27" value="&amp;lt;&amp;lt;interface&amp;gt;&amp;gt;&lt;div&gt;IQuackBehaviour&lt;/div&gt;" style="swimlane;fontStyle=0;childLayout=stackLayout;horizontal=1;startSize=40;fillColor=none;horizontalStack=0;resizeParent=1;resizeParentMax=0;resizeLast=0;collapsible=1;marginBottom=0;whiteSpace=wrap;html=1;" vertex="1" parent="WIyWlLk6GJQsqaUBKTNV-1">
          <mxGeometry x="780" y="330" width="140" height="66" as="geometry" />
        </mxCell>
        <mxCell id="8eBEiztrSXnsMm5_wwWA-28" value="+ Quack(): void" style="text;strokeColor=none;fillColor=none;align=left;verticalAlign=top;spacingLeft=4;spacingRight=4;overflow=hidden;rotatable=0;points=[[0,0.5],[1,0.5]];portConstraint=eastwest;whiteSpace=wrap;html=1;" vertex="1" parent="8eBEiztrSXnsMm5_wwWA-27">
          <mxGeometry y="40" width="140" height="26" as="geometry" />
        </mxCell>
        <mxCell id="8eBEiztrSXnsMm5_wwWA-29" value="FlyWithWings" style="swimlane;fontStyle=0;childLayout=stackLayout;horizontal=1;startSize=26;fillColor=none;horizontalStack=0;resizeParent=1;resizeParentMax=0;resizeLast=0;collapsible=1;marginBottom=0;whiteSpace=wrap;html=1;" vertex="1" parent="WIyWlLk6GJQsqaUBKTNV-1">
          <mxGeometry x="690" y="50" width="140" height="52" as="geometry" />
        </mxCell>
        <mxCell id="8eBEiztrSXnsMm5_wwWA-30" value="+ Fly(): void" style="text;strokeColor=none;fillColor=none;align=left;verticalAlign=top;spacingLeft=4;spacingRight=4;overflow=hidden;rotatable=0;points=[[0,0.5],[1,0.5]];portConstraint=eastwest;whiteSpace=wrap;html=1;" vertex="1" parent="8eBEiztrSXnsMm5_wwWA-29">
          <mxGeometry y="26" width="140" height="26" as="geometry" />
        </mxCell>
        <mxCell id="8eBEiztrSXnsMm5_wwWA-33" value="FlyNoWay" style="swimlane;fontStyle=0;childLayout=stackLayout;horizontal=1;startSize=26;fillColor=none;horizontalStack=0;resizeParent=1;resizeParentMax=0;resizeLast=0;collapsible=1;marginBottom=0;whiteSpace=wrap;html=1;" vertex="1" parent="WIyWlLk6GJQsqaUBKTNV-1">
          <mxGeometry x="860" y="50" width="140" height="52" as="geometry" />
        </mxCell>
        <mxCell id="8eBEiztrSXnsMm5_wwWA-34" value="+ Fly(): void" style="text;strokeColor=none;fillColor=none;align=left;verticalAlign=top;spacingLeft=4;spacingRight=4;overflow=hidden;rotatable=0;points=[[0,0.5],[1,0.5]];portConstraint=eastwest;whiteSpace=wrap;html=1;" vertex="1" parent="8eBEiztrSXnsMm5_wwWA-33">
          <mxGeometry y="26" width="140" height="26" as="geometry" />
        </mxCell>
        <mxCell id="8eBEiztrSXnsMm5_wwWA-36" value="overrides - cannot fly!" style="text;html=1;align=center;verticalAlign=middle;whiteSpace=wrap;rounded=0;" vertex="1" parent="WIyWlLk6GJQsqaUBKTNV-1">
          <mxGeometry x="870" y="102" width="120" height="30" as="geometry" />
        </mxCell>
        <mxCell id="8eBEiztrSXnsMm5_wwWA-37" value="overrides with details on how to fly" style="text;html=1;align=center;verticalAlign=middle;whiteSpace=wrap;rounded=0;" vertex="1" parent="WIyWlLk6GJQsqaUBKTNV-1">
          <mxGeometry x="690" y="102" width="140" height="30" as="geometry" />
        </mxCell>
        <mxCell id="8eBEiztrSXnsMm5_wwWA-38" value="Extends" style="endArrow=block;endSize=16;endFill=0;html=1;rounded=0;exitX=0.5;exitY=0;exitDx=0;exitDy=0;entryX=0.807;entryY=1.077;entryDx=0;entryDy=0;entryPerimeter=0;" edge="1" parent="WIyWlLk6GJQsqaUBKTNV-1" source="8eBEiztrSXnsMm5_wwWA-33" target="8eBEiztrSXnsMm5_wwWA-24">
          <mxGeometry width="160" relative="1" as="geometry">
            <mxPoint x="1069" y="19" as="sourcePoint" />
            <mxPoint x="990" y="-70" as="targetPoint" />
          </mxGeometry>
        </mxCell>
        <mxCell id="8eBEiztrSXnsMm5_wwWA-39" value="Extends" style="endArrow=block;endSize=16;endFill=0;html=1;rounded=0;exitX=0.5;exitY=0;exitDx=0;exitDy=0;entryX=0.329;entryY=1.115;entryDx=0;entryDy=0;entryPerimeter=0;" edge="1" parent="WIyWlLk6GJQsqaUBKTNV-1" source="8eBEiztrSXnsMm5_wwWA-29" target="8eBEiztrSXnsMm5_wwWA-24">
          <mxGeometry width="160" relative="1" as="geometry">
            <mxPoint x="616" y="200" as="sourcePoint" />
            <mxPoint x="537" y="111" as="targetPoint" />
          </mxGeometry>
        </mxCell>
        <mxCell id="8eBEiztrSXnsMm5_wwWA-40" value="" style="endArrow=block;dashed=1;endFill=0;endSize=12;html=1;rounded=0;exitX=1.009;exitY=0.295;exitDx=0;exitDy=0;exitPerimeter=0;entryX=0;entryY=0.5;entryDx=0;entryDy=0;" edge="1" parent="WIyWlLk6GJQsqaUBKTNV-1" source="8eBEiztrSXnsMm5_wwWA-5" target="8eBEiztrSXnsMm5_wwWA-23">
          <mxGeometry width="160" relative="1" as="geometry">
            <mxPoint x="560" y="80" as="sourcePoint" />
            <mxPoint x="720" y="80" as="targetPoint" />
          </mxGeometry>
        </mxCell>
        <mxCell id="8eBEiztrSXnsMm5_wwWA-43" value="implements" style="edgeLabel;html=1;align=center;verticalAlign=middle;resizable=0;points=[];" vertex="1" connectable="0" parent="8eBEiztrSXnsMm5_wwWA-40">
          <mxGeometry x="-0.1122" y="3" relative="1" as="geometry">
            <mxPoint x="-25" y="6" as="offset" />
          </mxGeometry>
        </mxCell>
        <mxCell id="8eBEiztrSXnsMm5_wwWA-42" value="Encapsulated fly behaviour" style="text;html=1;align=center;verticalAlign=middle;whiteSpace=wrap;rounded=0;" vertex="1" parent="WIyWlLk6GJQsqaUBKTNV-1">
          <mxGeometry x="650" y="-150" width="160" height="30" as="geometry" />
        </mxCell>
        <mxCell id="8eBEiztrSXnsMm5_wwWA-44" value="Quack" style="swimlane;fontStyle=0;childLayout=stackLayout;horizontal=1;startSize=26;fillColor=none;horizontalStack=0;resizeParent=1;resizeParentMax=0;resizeLast=0;collapsible=1;marginBottom=0;whiteSpace=wrap;html=1;" vertex="1" parent="WIyWlLk6GJQsqaUBKTNV-1">
          <mxGeometry x="600" y="490" width="140" height="52" as="geometry" />
        </mxCell>
        <mxCell id="8eBEiztrSXnsMm5_wwWA-45" value="+ Quack(): void" style="text;strokeColor=none;fillColor=none;align=left;verticalAlign=top;spacingLeft=4;spacingRight=4;overflow=hidden;rotatable=0;points=[[0,0.5],[1,0.5]];portConstraint=eastwest;whiteSpace=wrap;html=1;" vertex="1" parent="8eBEiztrSXnsMm5_wwWA-44">
          <mxGeometry y="26" width="140" height="26" as="geometry" />
        </mxCell>
        <mxCell id="8eBEiztrSXnsMm5_wwWA-46" value="overrides with details on how to quack" style="text;html=1;align=center;verticalAlign=middle;whiteSpace=wrap;rounded=0;" vertex="1" parent="WIyWlLk6GJQsqaUBKTNV-1">
          <mxGeometry x="600" y="542" width="140" height="30" as="geometry" />
        </mxCell>
        <mxCell id="8eBEiztrSXnsMm5_wwWA-47" value="Squeak" style="swimlane;fontStyle=0;childLayout=stackLayout;horizontal=1;startSize=26;fillColor=none;horizontalStack=0;resizeParent=1;resizeParentMax=0;resizeLast=0;collapsible=1;marginBottom=0;whiteSpace=wrap;html=1;" vertex="1" parent="WIyWlLk6GJQsqaUBKTNV-1">
          <mxGeometry x="770" y="490" width="140" height="52" as="geometry" />
        </mxCell>
        <mxCell id="8eBEiztrSXnsMm5_wwWA-48" value="+ Quack(): void" style="text;strokeColor=none;fillColor=none;align=left;verticalAlign=top;spacingLeft=4;spacingRight=4;overflow=hidden;rotatable=0;points=[[0,0.5],[1,0.5]];portConstraint=eastwest;whiteSpace=wrap;html=1;" vertex="1" parent="8eBEiztrSXnsMm5_wwWA-47">
          <mxGeometry y="26" width="140" height="26" as="geometry" />
        </mxCell>
        <mxCell id="8eBEiztrSXnsMm5_wwWA-49" value="overrides with details on how to squeak" style="text;html=1;align=center;verticalAlign=middle;whiteSpace=wrap;rounded=0;" vertex="1" parent="WIyWlLk6GJQsqaUBKTNV-1">
          <mxGeometry x="770" y="542" width="140" height="30" as="geometry" />
        </mxCell>
        <mxCell id="8eBEiztrSXnsMm5_wwWA-50" value="MuteQuack" style="swimlane;fontStyle=0;childLayout=stackLayout;horizontal=1;startSize=26;fillColor=none;horizontalStack=0;resizeParent=1;resizeParentMax=0;resizeLast=0;collapsible=1;marginBottom=0;whiteSpace=wrap;html=1;" vertex="1" parent="WIyWlLk6GJQsqaUBKTNV-1">
          <mxGeometry x="940" y="490" width="140" height="52" as="geometry" />
        </mxCell>
        <mxCell id="8eBEiztrSXnsMm5_wwWA-51" value="+ Quack(): void" style="text;strokeColor=none;fillColor=none;align=left;verticalAlign=top;spacingLeft=4;spacingRight=4;overflow=hidden;rotatable=0;points=[[0,0.5],[1,0.5]];portConstraint=eastwest;whiteSpace=wrap;html=1;" vertex="1" parent="8eBEiztrSXnsMm5_wwWA-50">
          <mxGeometry y="26" width="140" height="26" as="geometry" />
        </mxCell>
        <mxCell id="8eBEiztrSXnsMm5_wwWA-52" value="overrides - cannot quack!" style="text;html=1;align=center;verticalAlign=middle;whiteSpace=wrap;rounded=0;" vertex="1" parent="WIyWlLk6GJQsqaUBKTNV-1">
          <mxGeometry x="940" y="542" width="140" height="30" as="geometry" />
        </mxCell>
        <mxCell id="8eBEiztrSXnsMm5_wwWA-54" value="Encapsulated quack behaviour" style="text;html=1;align=center;verticalAlign=middle;whiteSpace=wrap;rounded=0;" vertex="1" parent="WIyWlLk6GJQsqaUBKTNV-1">
          <mxGeometry x="590" y="280" width="170" height="30" as="geometry" />
        </mxCell>
        <mxCell id="8eBEiztrSXnsMm5_wwWA-55" value="Extends" style="endArrow=block;endSize=16;endFill=0;html=1;rounded=0;entryX=0.121;entryY=1.038;entryDx=0;entryDy=0;entryPerimeter=0;exitX=0.5;exitY=0;exitDx=0;exitDy=0;" edge="1" parent="WIyWlLk6GJQsqaUBKTNV-1" source="8eBEiztrSXnsMm5_wwWA-44" target="8eBEiztrSXnsMm5_wwWA-28">
          <mxGeometry width="160" relative="1" as="geometry">
            <mxPoint x="460" y="460" as="sourcePoint" />
            <mxPoint x="620" y="460" as="targetPoint" />
          </mxGeometry>
        </mxCell>
        <mxCell id="8eBEiztrSXnsMm5_wwWA-56" value="Extends" style="endArrow=block;endSize=16;endFill=0;html=1;rounded=0;exitX=0.5;exitY=0;exitDx=0;exitDy=0;entryX=0.436;entryY=1.077;entryDx=0;entryDy=0;entryPerimeter=0;" edge="1" parent="WIyWlLk6GJQsqaUBKTNV-1" source="8eBEiztrSXnsMm5_wwWA-47" target="8eBEiztrSXnsMm5_wwWA-28">
          <mxGeometry width="160" relative="1" as="geometry">
            <mxPoint x="890" y="440" as="sourcePoint" />
            <mxPoint x="1050" y="440" as="targetPoint" />
          </mxGeometry>
        </mxCell>
        <mxCell id="8eBEiztrSXnsMm5_wwWA-57" value="Extends" style="endArrow=block;endSize=16;endFill=0;html=1;rounded=0;exitX=0.5;exitY=0;exitDx=0;exitDy=0;entryX=0.843;entryY=1.038;entryDx=0;entryDy=0;entryPerimeter=0;" edge="1" parent="WIyWlLk6GJQsqaUBKTNV-1" source="8eBEiztrSXnsMm5_wwWA-50" target="8eBEiztrSXnsMm5_wwWA-28">
          <mxGeometry width="160" relative="1" as="geometry">
            <mxPoint x="1020" y="410" as="sourcePoint" />
            <mxPoint x="890" y="390" as="targetPoint" />
          </mxGeometry>
        </mxCell>
        <mxCell id="8eBEiztrSXnsMm5_wwWA-58" value="" style="endArrow=block;dashed=1;endFill=0;endSize=12;html=1;rounded=0;exitX=1;exitY=0.5;exitDx=0;exitDy=0;entryX=0;entryY=0.25;entryDx=0;entryDy=0;" edge="1" parent="WIyWlLk6GJQsqaUBKTNV-1" source="8eBEiztrSXnsMm5_wwWA-5" target="8eBEiztrSXnsMm5_wwWA-27">
          <mxGeometry width="160" relative="1" as="geometry">
            <mxPoint x="620" y="220" as="sourcePoint" />
            <mxPoint x="780" y="220" as="targetPoint" />
          </mxGeometry>
        </mxCell>
        <mxCell id="8eBEiztrSXnsMm5_wwWA-59" value="implements" style="edgeLabel;html=1;align=center;verticalAlign=middle;resizable=0;points=[];" vertex="1" connectable="0" parent="8eBEiztrSXnsMm5_wwWA-58">
          <mxGeometry x="-0.1828" relative="1" as="geometry">
            <mxPoint as="offset" />
          </mxGeometry>
        </mxCell>
        <mxCell id="8eBEiztrSXnsMm5_wwWA-60" value="all these algorithms are interchangeable on runtime" style="text;html=1;align=center;verticalAlign=middle;whiteSpace=wrap;rounded=0;" vertex="1" parent="WIyWlLk6GJQsqaUBKTNV-1">
          <mxGeometry x="590" y="600" width="500" height="30" as="geometry" />
        </mxCell>
        <mxCell id="8eBEiztrSXnsMm5_wwWA-61" value="all these algorithms are interchangeable on runtime" style="text;html=1;align=center;verticalAlign=middle;whiteSpace=wrap;rounded=0;" vertex="1" parent="WIyWlLk6GJQsqaUBKTNV-1">
          <mxGeometry x="650" y="150" width="380" height="30" as="geometry" />
        </mxCell>
        <mxCell id="8eBEiztrSXnsMm5_wwWA-66" value="" style="group" vertex="1" connectable="0" parent="WIyWlLk6GJQsqaUBKTNV-1">
          <mxGeometry x="150" y="680" width="390" height="390" as="geometry" />
        </mxCell>
        <mxCell id="8eBEiztrSXnsMm5_wwWA-62" value="" style="whiteSpace=wrap;html=1;aspect=fixed;" vertex="1" parent="8eBEiztrSXnsMm5_wwWA-66">
          <mxGeometry width="390" height="390" as="geometry" />
        </mxCell>
        <mxCell id="8eBEiztrSXnsMm5_wwWA-65" value="&lt;h1 style=&quot;margin-top: 0px;&quot;&gt;&lt;font style=&quot;font-size: 14px;&quot;&gt;Code example - how to use it!&lt;/font&gt;&lt;/h1&gt;&lt;p&gt;Duck duck = new MallardDuck(new Quack(), new FlyNoWay());&lt;/p&gt;&lt;p&gt;duck.PerformQuack(); // quacks like a duck&lt;/p&gt;&lt;p&gt;duck.PerformFly(); // cannot fly&lt;/p&gt;&lt;p&gt;duck.Display(); // looks like a MallardDuck&lt;/p&gt;&lt;p&gt;&lt;br&gt;&lt;/p&gt;&lt;p&gt;Duck duck2 = new RedheadDuck(new Squeak(), new FlyWithWings());&lt;/p&gt;&lt;p&gt;duck2.PerformQuack(); // squaks&lt;/p&gt;&lt;p&gt;duck2.PerformFly(); // flying with wings&lt;/p&gt;&lt;p&gt;duck2.Display(); // looks like a Redhead Duck&lt;/p&gt;" style="text;html=1;whiteSpace=wrap;overflow=hidden;rounded=0;" vertex="1" parent="8eBEiztrSXnsMm5_wwWA-66">
          <mxGeometry width="390" height="390" as="geometry" />
        </mxCell>
      </root>
    </mxGraphModel>
  </diagram>
</mxfile>
